<mxfile host="app.diagrams.net" modified="2022-05-26T05:35:59.409Z" agent="5.0 (Windows NT 10.0; Win64; x64) AppleWebKit/537.36 (KHTML, like Gecko) Chrome/102.0.5005.63 Safari/537.36" etag="xmp0_3pbmXl_pTf9Mc2C" version="18.1.2" type="github">
  <diagram id="C5RBs43oDa-KdzZeNtuy" name="Page-1">
    <mxGraphModel dx="1069" dy="598" grid="1" gridSize="10" guides="1" tooltips="1" connect="1" arrows="1" fold="1" page="1" pageScale="1" pageWidth="827" pageHeight="1169" math="0" shadow="0">
      <root>
        <mxCell id="WIyWlLk6GJQsqaUBKTNV-0" />
        <mxCell id="WIyWlLk6GJQsqaUBKTNV-1" parent="WIyWlLk6GJQsqaUBKTNV-0" />
        <mxCell id="1GNV1eHEHa3V5cSZTnpK-24" style="edgeStyle=orthogonalEdgeStyle;rounded=0;orthogonalLoop=1;jettySize=auto;html=1;exitX=0.5;exitY=0.5;exitDx=0;exitDy=15;exitPerimeter=0;fontSize=13;fontFamily=微软雅黑;" edge="1" parent="WIyWlLk6GJQsqaUBKTNV-1" source="1GNV1eHEHa3V5cSZTnpK-11" target="1GNV1eHEHa3V5cSZTnpK-13">
          <mxGeometry relative="1" as="geometry" />
        </mxCell>
        <mxCell id="1GNV1eHEHa3V5cSZTnpK-25" style="edgeStyle=orthogonalEdgeStyle;rounded=0;orthogonalLoop=1;jettySize=auto;html=1;exitX=0.5;exitY=0.5;exitDx=0;exitDy=15;exitPerimeter=0;fontSize=13;fontFamily=微软雅黑;" edge="1" parent="WIyWlLk6GJQsqaUBKTNV-1" source="1GNV1eHEHa3V5cSZTnpK-11" target="1GNV1eHEHa3V5cSZTnpK-14">
          <mxGeometry relative="1" as="geometry" />
        </mxCell>
        <mxCell id="1GNV1eHEHa3V5cSZTnpK-11" value="在线教育网站" style="html=1;dashed=0;whitespace=wrap;shape=mxgraph.dfd.start;fontSize=13;fontFamily=微软雅黑;" vertex="1" parent="WIyWlLk6GJQsqaUBKTNV-1">
          <mxGeometry x="290" y="210" width="80" height="30" as="geometry" />
        </mxCell>
        <mxCell id="1GNV1eHEHa3V5cSZTnpK-26" style="edgeStyle=orthogonalEdgeStyle;rounded=0;orthogonalLoop=1;jettySize=auto;html=1;exitX=0.5;exitY=0.5;exitDx=0;exitDy=15;exitPerimeter=0;fontSize=13;fontFamily=微软雅黑;" edge="1" parent="WIyWlLk6GJQsqaUBKTNV-1" source="1GNV1eHEHa3V5cSZTnpK-13" target="1GNV1eHEHa3V5cSZTnpK-15">
          <mxGeometry relative="1" as="geometry" />
        </mxCell>
        <mxCell id="1GNV1eHEHa3V5cSZTnpK-27" style="edgeStyle=orthogonalEdgeStyle;rounded=0;orthogonalLoop=1;jettySize=auto;html=1;exitX=0.5;exitY=0.5;exitDx=0;exitDy=15;exitPerimeter=0;fontSize=13;fontFamily=微软雅黑;" edge="1" parent="WIyWlLk6GJQsqaUBKTNV-1" source="1GNV1eHEHa3V5cSZTnpK-13" target="1GNV1eHEHa3V5cSZTnpK-16">
          <mxGeometry relative="1" as="geometry" />
        </mxCell>
        <mxCell id="1GNV1eHEHa3V5cSZTnpK-28" style="edgeStyle=orthogonalEdgeStyle;rounded=0;orthogonalLoop=1;jettySize=auto;html=1;exitX=0.5;exitY=0.5;exitDx=0;exitDy=15;exitPerimeter=0;entryX=0.5;entryY=0;entryDx=0;entryDy=0;fontSize=13;fontFamily=微软雅黑;" edge="1" parent="WIyWlLk6GJQsqaUBKTNV-1" source="1GNV1eHEHa3V5cSZTnpK-13" target="1GNV1eHEHa3V5cSZTnpK-17">
          <mxGeometry relative="1" as="geometry" />
        </mxCell>
        <mxCell id="1GNV1eHEHa3V5cSZTnpK-29" style="edgeStyle=orthogonalEdgeStyle;rounded=0;orthogonalLoop=1;jettySize=auto;html=1;exitX=0.5;exitY=0.5;exitDx=0;exitDy=15;exitPerimeter=0;entryX=0.5;entryY=0;entryDx=0;entryDy=0;fontSize=13;fontFamily=微软雅黑;" edge="1" parent="WIyWlLk6GJQsqaUBKTNV-1" source="1GNV1eHEHa3V5cSZTnpK-13" target="1GNV1eHEHa3V5cSZTnpK-18">
          <mxGeometry relative="1" as="geometry" />
        </mxCell>
        <mxCell id="1GNV1eHEHa3V5cSZTnpK-13" value="学生模块" style="html=1;dashed=0;whitespace=wrap;shape=mxgraph.dfd.start;fontSize=13;fontFamily=微软雅黑;" vertex="1" parent="WIyWlLk6GJQsqaUBKTNV-1">
          <mxGeometry x="180" y="280" width="80" height="30" as="geometry" />
        </mxCell>
        <mxCell id="1GNV1eHEHa3V5cSZTnpK-30" style="edgeStyle=orthogonalEdgeStyle;rounded=0;orthogonalLoop=1;jettySize=auto;html=1;exitX=0.5;exitY=0.5;exitDx=0;exitDy=15;exitPerimeter=0;fontSize=13;fontFamily=微软雅黑;" edge="1" parent="WIyWlLk6GJQsqaUBKTNV-1" source="1GNV1eHEHa3V5cSZTnpK-14" target="1GNV1eHEHa3V5cSZTnpK-19">
          <mxGeometry relative="1" as="geometry" />
        </mxCell>
        <mxCell id="1GNV1eHEHa3V5cSZTnpK-31" style="edgeStyle=orthogonalEdgeStyle;rounded=0;orthogonalLoop=1;jettySize=auto;html=1;exitX=0.5;exitY=0.5;exitDx=0;exitDy=15;exitPerimeter=0;fontSize=13;fontFamily=微软雅黑;" edge="1" parent="WIyWlLk6GJQsqaUBKTNV-1" source="1GNV1eHEHa3V5cSZTnpK-14" target="1GNV1eHEHa3V5cSZTnpK-20">
          <mxGeometry relative="1" as="geometry" />
        </mxCell>
        <mxCell id="1GNV1eHEHa3V5cSZTnpK-32" style="edgeStyle=orthogonalEdgeStyle;rounded=0;orthogonalLoop=1;jettySize=auto;html=1;exitX=0.5;exitY=0.5;exitDx=0;exitDy=15;exitPerimeter=0;fontSize=13;fontFamily=微软雅黑;" edge="1" parent="WIyWlLk6GJQsqaUBKTNV-1" source="1GNV1eHEHa3V5cSZTnpK-14" target="1GNV1eHEHa3V5cSZTnpK-21">
          <mxGeometry relative="1" as="geometry" />
        </mxCell>
        <mxCell id="1GNV1eHEHa3V5cSZTnpK-33" style="edgeStyle=orthogonalEdgeStyle;rounded=0;orthogonalLoop=1;jettySize=auto;html=1;exitX=0.5;exitY=0.5;exitDx=0;exitDy=15;exitPerimeter=0;fontSize=13;fontFamily=微软雅黑;" edge="1" parent="WIyWlLk6GJQsqaUBKTNV-1" source="1GNV1eHEHa3V5cSZTnpK-14" target="1GNV1eHEHa3V5cSZTnpK-22">
          <mxGeometry relative="1" as="geometry" />
        </mxCell>
        <mxCell id="1GNV1eHEHa3V5cSZTnpK-14" value="后台管理模块" style="html=1;dashed=0;whitespace=wrap;shape=mxgraph.dfd.start;fontSize=13;fontFamily=微软雅黑;" vertex="1" parent="WIyWlLk6GJQsqaUBKTNV-1">
          <mxGeometry x="410" y="280" width="80" height="30" as="geometry" />
        </mxCell>
        <mxCell id="1GNV1eHEHa3V5cSZTnpK-15" value="登&lt;br style=&quot;font-size: 13px;&quot;&gt;录" style="rounded=0;whiteSpace=wrap;html=1;horizontal=1;verticalAlign=middle;fontSize=13;fontFamily=微软雅黑;" vertex="1" parent="WIyWlLk6GJQsqaUBKTNV-1">
          <mxGeometry x="125" y="350" width="40" height="120" as="geometry" />
        </mxCell>
        <mxCell id="1GNV1eHEHa3V5cSZTnpK-16" value="课&lt;br style=&quot;font-size: 13px;&quot;&gt;程&lt;br style=&quot;font-size: 13px;&quot;&gt;展&lt;br style=&quot;font-size: 13px;&quot;&gt;示" style="rounded=0;whiteSpace=wrap;html=1;horizontal=1;verticalAlign=middle;fontSize=13;fontFamily=微软雅黑;" vertex="1" parent="WIyWlLk6GJQsqaUBKTNV-1">
          <mxGeometry x="175" y="350" width="40" height="120" as="geometry" />
        </mxCell>
        <mxCell id="1GNV1eHEHa3V5cSZTnpK-17" value="在&lt;br style=&quot;font-size: 13px;&quot;&gt;线&lt;br style=&quot;font-size: 13px;&quot;&gt;教&lt;br style=&quot;font-size: 13px;&quot;&gt;学" style="rounded=0;whiteSpace=wrap;html=1;horizontal=1;verticalAlign=middle;fontSize=13;fontFamily=微软雅黑;" vertex="1" parent="WIyWlLk6GJQsqaUBKTNV-1">
          <mxGeometry x="225" y="350" width="40" height="120" as="geometry" />
        </mxCell>
        <mxCell id="1GNV1eHEHa3V5cSZTnpK-18" value="在&lt;br&gt;线&lt;br&gt;考&lt;br&gt;试" style="rounded=0;whiteSpace=wrap;html=1;horizontal=1;verticalAlign=middle;flipH=0;fontSize=13;fontFamily=微软雅黑;" vertex="1" parent="WIyWlLk6GJQsqaUBKTNV-1">
          <mxGeometry x="275" y="350" width="40" height="120" as="geometry" />
        </mxCell>
        <mxCell id="1GNV1eHEHa3V5cSZTnpK-19" value="课&lt;br style=&quot;font-size: 13px;&quot;&gt;程&lt;br style=&quot;font-size: 13px;&quot;&gt;管&lt;br style=&quot;font-size: 13px;&quot;&gt;理" style="rounded=0;whiteSpace=wrap;html=1;horizontal=1;verticalAlign=middle;flipH=0;fontSize=13;fontFamily=微软雅黑;" vertex="1" parent="WIyWlLk6GJQsqaUBKTNV-1">
          <mxGeometry x="355" y="350" width="40" height="120" as="geometry" />
        </mxCell>
        <mxCell id="1GNV1eHEHa3V5cSZTnpK-20" value="题&lt;br style=&quot;font-size: 13px;&quot;&gt;库&lt;br style=&quot;font-size: 13px;&quot;&gt;管&lt;br style=&quot;font-size: 13px;&quot;&gt;理" style="rounded=0;whiteSpace=wrap;html=1;horizontal=1;verticalAlign=middle;flipH=0;fontSize=13;fontFamily=微软雅黑;" vertex="1" parent="WIyWlLk6GJQsqaUBKTNV-1">
          <mxGeometry x="405" y="350" width="40" height="120" as="geometry" />
        </mxCell>
        <mxCell id="1GNV1eHEHa3V5cSZTnpK-21" value="学&lt;br style=&quot;font-size: 13px;&quot;&gt;生&lt;br style=&quot;font-size: 13px;&quot;&gt;管&lt;br style=&quot;font-size: 13px;&quot;&gt;理" style="rounded=0;whiteSpace=wrap;html=1;horizontal=1;verticalAlign=middle;flipH=0;fontSize=13;fontFamily=微软雅黑;" vertex="1" parent="WIyWlLk6GJQsqaUBKTNV-1">
          <mxGeometry x="455" y="350" width="40" height="120" as="geometry" />
        </mxCell>
        <mxCell id="1GNV1eHEHa3V5cSZTnpK-22" value="系&lt;br style=&quot;font-size: 13px;&quot;&gt;统&lt;br style=&quot;font-size: 13px;&quot;&gt;管&lt;br style=&quot;font-size: 13px;&quot;&gt;理" style="rounded=0;whiteSpace=wrap;html=1;horizontal=1;verticalAlign=middle;flipH=0;fontSize=13;fontFamily=微软雅黑;" vertex="1" parent="WIyWlLk6GJQsqaUBKTNV-1">
          <mxGeometry x="505" y="350" width="40" height="120" as="geometry" />
        </mxCell>
      </root>
    </mxGraphModel>
  </diagram>
</mxfile>
